<svg xmlns="http://www.w3.org/2000/svg" viewBox="0 0 64 64" width="64" height="64" role="img" aria-label="Live Oak Design House">
  <rect width="64" height="64" rx="10" fill="#2F4F3A"/>
  <g fill="#D59940">
    <path d="M32 50c-.7 0-1.2-.5-1.2-1.2V36h2.4v12.8c0 .7-.5 1.2-1.2 1.2z"/>
    <path d="M31.8 16c-3.7 0-6.8 2.6-7.5 6.1-.4-.1-.8-.1-1.2-.1-3 0-5.4 2.4-5.4 5.4 0 .6.1 1.2.3 1.8-1.1.6-1.9 1.8-1.9 3.2 0 .5.1 1 .3 1.5-.9.5-1.5 1.5-1.5 2.6 0 1.1.6 2.1 1.5 2.6-.2.5-.3 1-.3 1.5 0 2 1.6 3.6 3.6 3.6.7 0 1.3-.2 1.9-.5.7 1 1.9 1.6 3.2 1.6.4 0 .8-.1 1.2-.2.6 1.3 1.9 2.1 3.4 2.1s2.8-.9 3.4-2.1c.4.1.8.2 1.2.2 1.3 0 2.5-.6 3.2-1.6.6.3 1.2.5 1.9.5 2 0 3.6-1.6 3.6-3.6 0-.5-.1-1-.3-1.5.9-.5 1.5-1.5 1.5-2.6 0-1.1-.6-2.1-1.5-2.6.2-.5.3-1 .3-1.5 0-1.4-.8-2.6-1.9-3.2.2-.6.3-1.2.3-1.8 0-3-2.4-5.4-5.4-5.4-.4 0-.8 0-1.2.1-.7-3.5-3.8-6.1-7.5-6.1z"/>
    <ellipse cx="24" cy="27" rx="3.5" ry="2.4" transform="rotate(-25 24 27)"/>
    <ellipse cx="40" cy="25" rx="3.2" ry="2.2" transform="rotate(22 40 25)"/>
    <ellipse cx="27" cy="22" rx="3" ry="2" transform="rotate(-15 27 22)"/>
    <ellipse cx="37" cy="30" rx="2.8" ry="1.9" transform="rotate(18 37 30)"/>
    <ellipse cx="22" cy="32" rx="2.6" ry="1.8" transform="rotate(-30 22 32)"/>
  </g>
</svg>